<svg xmlns="http://www.w3.org/2000/svg" viewBox="0 0 100 100">
  <!-- Espresso rounded square background -->
  <rect width="100" height="100" rx="22" fill="#1E1410"/>
  <!-- Mainspring spiral: 2.5 turns, winds from outer edge inward to centre -->
  <path d="M 50.0,10.0 L 52.5,10.2 L 55.0,10.6 L 57.4,11.1 L 59.8,11.8 L 62.2,12.6 L 64.4,13.6 L 66.6,14.7 L 68.7,15.9 L 70.8,17.3 L 72.7,18.7 L 74.5,20.3 L 76.3,22.0 L 77.9,23.8 L 79.4,25.7 L 80.7,27.7 L 81.9,29.7 L 83.0,31.8 L 84.0,34.0 L 84.8,36.2 L 85.5,38.5 L 86.0,40.8 L 86.4,43.1 L 86.6,45.4 L 86.7,47.7 L 86.6,50.0 L 86.4,52.3 L 86.0,54.6 L 85.6,56.8 L 84.9,59.0 L 84.2,61.1 L 83.3,63.2 L 82.3,65.2 L 81.1,67.1 L 79.9,69.0 L 78.5,70.7 L 77.0,72.4 L 75.5,73.9 L 73.8,75.4 L 72.1,76.7 L 70.3,78.0 L 68.4,79.1 L 66.5,80.0 L 64.5,80.9 L 62.5,81.6 L 60.5,82.2 L 58.4,82.7 L 56.3,83.0 L 54.2,83.2 L 52.1,83.3 L 50.0,83.2 L 47.9,83.0 L 45.9,82.7 L 43.9,82.2 L 41.9,81.6 L 40.0,80.9 L 38.1,80.1 L 36.3,79.2 L 34.5,78.1 L 32.9,77.0 L 31.3,75.8 L 29.8,74.4 L 28.4,73.0 L 27.1,71.5 L 25.9,69.9 L 24.8,68.3 L 23.8,66.6 L 22.9,64.9 L 22.2,63.1 L 21.5,61.3 L 21.0,59.4 L 20.6,57.5 L 20.3,55.7 L 20.2,53.8 L 20.1,51.9 L 20.2,50.0 L 20.4,48.1 L 20.7,46.3 L 21.1,44.5 L 21.7,42.7 L 22.3,41.0 L 23.1,39.3 L 23.9,37.7 L 24.8,36.2 L 25.9,34.7 L 27.0,33.3 L 28.2,32.0 L 29.5,30.7 L 30.8,29.6 L 32.2,28.5 L 33.7,27.5 L 35.2,26.7 L 36.8,25.9 L 38.4,25.3 L 40.0,24.7 L 41.6,24.2 L 43.3,23.9 L 45.0,23.7 L 46.7,23.5 L 48.3,23.5 L 50.0,23.6 L 51.6,23.8 L 53.3,24.1 L 54.9,24.5 L 56.4,25.0 L 57.9,25.5 L 59.4,26.2 L 60.8,27.0 L 62.2,27.8 L 63.5,28.7 L 64.7,29.7 L 65.9,30.8 L 67.0,31.9 L 68.0,33.1 L 68.9,34.4 L 69.7,35.7 L 70.5,37.0 L 71.1,38.4 L 71.7,39.8 L 72.1,41.2 L 72.5,42.7 L 72.8,44.1 L 73.0,45.6 L 73.1,47.1 L 73.1,48.5 L 73.0,50.0 L 72.8,51.4 L 72.5,52.8 L 72.2,54.2 L 71.8,55.6 L 71.2,56.9 L 70.6,58.2 L 69.9,59.4 L 69.2,60.6 L 68.4,61.7 L 67.5,62.7 L 66.6,63.7 L 65.6,64.6 L 64.5,65.5 L 63.4,66.3 L 62.3,67.0 L 61.2,67.6 L 60.0,68.1 L 58.8,68.6 L 57.5,69.0 L 56.3,69.3 L 55.0,69.5 L 53.7,69.7 L 52.5,69.7 L 51.2,69.7 L 50.0,69.6 L 48.8,69.4 L 47.6,69.2 L 46.4,68.9 L 45.3,68.5 L 44.2,68.0 L 43.1,67.5 L 42.1,66.9 L 41.1,66.2 L 40.2,65.5 L 39.3,64.8 L 38.5,63.9 L 37.7,63.1 L 37.0,62.2 L 36.4,61.3 L 35.8,60.3 L 35.3,59.3 L 34.9,58.3 L 34.5,57.3 L 34.2,56.3 L 33.9,55.2 L 33.8,54.2 L 33.7,53.1 L 33.7,52.1 L 33.7,51.0 L 33.8,50.0 L 34.0,49.0 L 34.2,48.0 L 34.5,47.0 L 34.8,46.1 L 35.2,45.2 L 35.7,44.3 L 36.2,43.5 L 36.8,42.7 L 37.4,42.0 L 38.0,41.3 L 38.7,40.6 L 39.4,40.0 L 40.1,39.5 L 40.9,39.0 L 41.7,38.5 L 42.5,38.2 L 43.3,37.8 L 44.1,37.6 L 45.0,37.3 L 45.8,37.2 L 46.7,37.1 L 47.5,37.0 L 48.4,37.0 L 49.2,37.1 L 50.0,37.2 L 50.8,37.4 L 51.6,37.6 L 52.3,37.8 L 53.0,38.1 L 53.7,38.5 L 54.4,38.9 L 55.0,39.3 L 55.6,39.7 L 56.2,40.2 L 56.7,40.7 L 57.2,41.3 L 57.6,41.9 L 58.0,42.4 L 58.4,43.1 L 58.7,43.7 L 59.0,44.3 L 59.2,44.9 L 59.4,45.6 L 59.5,46.2 L 59.6,46.9 L 59.6,47.5 L 59.6,48.2 L 59.6,48.8 L 59.5,49.4 L 59.4,50.0 L 59.2,50.6 L 59.1,51.1 L 58.8,51.7 L 58.6,52.2 L 58.3,52.7 L 58.0,53.2 L 57.6,53.6 L 57.3,54.0 L 56.9,54.4 L 56.5,54.7 L 56.1,55.0 L 55.7,55.3 L 55.2,55.6 L 54.8,55.8 L 54.3,56.0 L 53.9,56.1 L 53.4,56.2 L 53.0,56.3 L 52.5,56.3 L 52.1,56.4 L 51.6,56.3 L 51.2,56.3 L 50.8,56.2 L 50.4,56.1 L 50.0,56.0"
    fill="none"
    stroke="#C9A248"
    stroke-width="8"
    stroke-linecap="round"
    stroke-linejoin="round"/>
</svg>