<svg xmlns="http://www.w3.org/2000/svg" viewBox="0 0 100 100">
  <rect width="100" height="100" rx="20" fill="#1E1410"/>
  <path d="M 50.00,8.00 L 53.28,8.26 L 56.53,8.78 L 59.71,9.55 L 62.82,10.56 L 65.82,11.81 L 68.71,13.28 L 71.46,14.98 L 74.07,16.88 L 76.50,18.97 L 78.76,21.24 L 80.83,23.67 L 82.70,26.25 L 84.35,28.95 L 85.77,31.77 L 86.97,34.69 L 87.93,37.67 L 88.66,40.72 L 89.13,43.80 L 89.37,46.90 L 89.36,50.00 L 89.10,53.08 L 88.61,56.12 L 87.88,59.10 L 86.93,62.00 L 85.75,64.81 L 84.36,67.51 L 82.77,70.08 L 80.99,72.51 L 79.02,74.79 L 76.90,76.90 L 74.62,78.82 L 72.20,80.56 L 69.67,82.09 L 67.03,83.42 L 64.30,84.53 L 61.51,85.42 L 58.66,86.09 L 55.78,86.52 L 52.89,86.73 L 50.00,86.71 L 47.13,86.47 L 44.30,86.00 L 41.52,85.31 L 38.82,84.41 L 36.20,83.31 L 33.69,82.01 L 31.30,80.52 L 29.04,78.85 L 26.93,77.01 L 24.97,75.03 L 23.19,72.90 L 21.58,70.65 L 20.16,68.29 L 18.94,65.83 L 17.91,63.29 L 17.09,60.69 L 16.48,58.05 L 16.09,55.37 L 15.90,52.68 L 15.93,50.00 L 16.17,47.34 L 16.61,44.71 L 17.26,42.14 L 18.10,39.63 L 19.13,37.21 L 20.35,34.89 L 21.74,32.68 L 23.29,30.59 L 25.00,28.64 L 26.84,26.84 L 28.82,25.20 L 30.91,23.72 L 33.10,22.41 L 35.37,21.29 L 37.72,20.35 L 40.12,19.61 L 42.57,19.05 L 45.04,18.70 L 47.52,18.54 L 50.00,18.57 L 52.46,18.80 L 54.88,19.22 L 57.24,19.83 L 59.55,20.61 L 61.77,21.57 L 63.91,22.70 L 65.94,23.99 L 67.85,25.43 L 69.64,27.01 L 71.29,28.71 L 72.79,30.53 L 74.14,32.46 L 75.33,34.48 L 76.35,36.57 L 77.20,38.73 L 77.88,40.94 L 78.38,43.19 L 78.69,45.46 L 78.83,47.73 L 78.79,50.00 L 78.57,52.25 L 78.17,54.46 L 77.60,56.63 L 76.87,58.73 L 75.98,60.76 L 74.94,62.71 L 73.76,64.56 L 72.43,66.30 L 70.98,67.92 L 69.42,69.42 L 67.75,70.78 L 65.99,72.01 L 64.14,73.08 L 62.23,74.00 L 60.26,74.76 L 58.24,75.37 L 56.20,75.81 L 54.13,76.08 L 52.06,76.19 L 50.00,76.14 L 47.96,75.93 L 45.95,75.56 L 43.99,75.04 L 42.08,74.36 L 40.25,73.54 L 38.49,72.59 L 36.82,71.50 L 35.25,70.29 L 33.79,68.97 L 32.45,67.55 L 31.23,66.03 L 30.13,64.43 L 29.17,62.76 L 28.35,61.03 L 27.68,59.25 L 27.15,57.43 L 26.76,55.58 L 26.53,53.72 L 26.44,51.85 L 26.50,50.00 L 26.70,48.17 L 27.05,46.37 L 27.53,44.61 L 28.15,42.90 L 28.90,41.26 L 29.77,39.69 L 30.75,38.20 L 31.84,36.81 L 33.03,35.51 L 34.32,34.32 L 35.68,33.24 L 37.12,32.27 L 38.62,31.43 L 40.17,30.71 L 41.77,30.12 L 43.39,29.66 L 45.04,29.33 L 46.70,29.14 L 48.35,29.08 L 50.00,29.14 L 51.63,29.34 L 53.22,29.66 L 54.78,30.10 L 56.28,30.67 L 57.73,31.34 L 59.11,32.12 L 60.41,33.01 L 61.64,33.98 L 62.77,35.04 L 63.81,36.19 L 64.75,37.40 L 65.59,38.67 L 66.32,40.00 L 66.94,41.37 L 67.44,42.78 L 67.83,44.21 L 68.10,45.66 L 68.25,47.11 L 68.29,48.56 L 68.21,50.00 L 68.03,51.42 L 67.73,52.81 L 67.33,54.16 L 66.82,55.47 L 66.22,56.72 L 65.52,57.91 L 64.74,59.03 L 63.88,60.08 L 62.95,61.06 L 61.95,61.95 L 60.89,62.74 L 59.77,63.45 L 58.62,64.07 L 57.43,64.58 L 56.21,65.00 L 54.98,65.31 L 53.73,65.53 L 52.48,65.64 L 51.23,65.66 L 50.00,65.57 L 48.79,65.39 L 47.61,65.12 L 46.46,64.76 L 45.35,64.31 L 44.29,63.78 L 43.29,63.17 L 42.35,62.49 L 41.47,61.74 L 40.66,60.94 L 39.92,60.08 L 39.26,59.17 L 38.69,58.22 L 38.19,57.24 L 37.77,56.23 L 37.45,55.20 L 37.20,54.16 L 37.04,53.11 L 36.97,52.06 L 36.98,51.02 L 37.07,50.00 L 37.24,49.00 L 37.49,48.02 L 37.81,47.07 L 38.21,46.17 L 38.67,45.31 L 39.19,44.49 L 39.77,43.73 L 40.40,43.02 L 41.07,42.38 L 41.79,41.79 L 42.55,41.27 L 43.33,40.82 L 44.14,40.44 L 44.97,40.13 L 45.81,39.89 L 46.66,39.72 L 47.51,39.61 L 48.35,39.58 L 49.18,39.61 L 50.00,39.71 L 50.80,39.88 L 51.57,40.10 L 52.31,40.38 L 53.02,40.72 L 53.68,41.11 L 54.31,41.54 L 54.89,42.02 L 55.42,42.53 L 55.91,43.08 L 56.34,43.66 L 56.72,44.26 L 57.04,44.89 L 57.31,45.52 L 57.52,46.17 L 57.67,46.82 L 57.77,47.47 L 57.82,48.12 L 57.81,48.76 L 57.75,49.39 L 57.64,50.00 L 57.49,50.59 L 57.29,51.15 L 57.05,51.69 L 56.77,52.20 L 56.45,52.67 L 56.10,53.11 L 55.73,53.51 L 55.33,53.87 L 54.91,54.19 L 54.47,54.47 L 54.02,54.71 L 53.56,54.90 L 53.10,55.05 L 52.63,55.16 L 52.17,55.23 L 51.71,55.26 L 51.26,55.25 L 50.82,55.20 L 50.40,55.12 L 50.00,55.00" fill="none" stroke="#C9A248" stroke-width="6.5" stroke-linecap="round" stroke-linejoin="round"/>
</svg>