<svg width="160" height="160" viewBox="38 25 160 160" xmlns="http://www.w3.org/2000/svg">

  <!-- Cream face fill -->
  <circle cx="118" cy="105" r="74" fill="#FDFAF4"/>

  <!-- Outer bezel ring -->
  <circle cx="118" cy="105" r="74" fill="none" stroke="#1B2B3E" stroke-width="2.5"/>

  <!-- Inner dashed track ring -->
  <circle cx="118" cy="105" r="63" fill="none" stroke="#1B2B3E" stroke-width="0.5" stroke-dasharray="2,5" opacity="0.35"/>

  <!-- Cardinal tick marks -->
  <line x1="118" y1="31" x2="118" y2="42" stroke="#1B2B3E" stroke-width="2.5" stroke-linecap="round"/>
  <line x1="181" y1="105" x2="192" y2="105" stroke="#1B2B3E" stroke-width="2.5" stroke-linecap="round"/>
  <line x1="118" y1="168" x2="118" y2="179" stroke="#1B2B3E" stroke-width="2.5" stroke-linecap="round"/>
  <line x1="44" y1="105" x2="55" y2="105" stroke="#1B2B3E" stroke-width="2.5" stroke-linecap="round"/>

  <!-- Minor tick marks at 30° intervals -->
  <line x1="155" y1="42" x2="150" y2="51" stroke="#1B2B3E" stroke-width="1" stroke-linecap="round" opacity="0.5"/>
  <line x1="182" y1="68" x2="174" y2="73" stroke="#1B2B3E" stroke-width="1" stroke-linecap="round" opacity="0.5"/>
  <line x1="182" y1="142" x2="174" y2="137" stroke="#1B2B3E" stroke-width="1" stroke-linecap="round" opacity="0.5"/>
  <line x1="155" y1="168" x2="150" y2="159" stroke="#1B2B3E" stroke-width="1" stroke-linecap="round" opacity="0.5"/>
  <line x1="81" y1="168" x2="86" y2="159" stroke="#1B2B3E" stroke-width="1" stroke-linecap="round" opacity="0.5"/>
  <line x1="54" y1="142" x2="62" y2="137" stroke="#1B2B3E" stroke-width="1" stroke-linecap="round" opacity="0.5"/>
  <line x1="54" y1="68" x2="62" y2="73" stroke="#1B2B3E" stroke-width="1" stroke-linecap="round" opacity="0.5"/>
  <line x1="81" y1="42" x2="86" y2="51" stroke="#1B2B3E" stroke-width="1" stroke-linecap="round" opacity="0.5"/>

  <!-- Mainspring coil spiral -->
  <path d="
    M 118 90
    A 15 15 0 0 1 118 120
    L 118 125
    A 20 20 0 0 0 118 85
    L 118 77
    A 28 28 0 0 1 118 133
    L 118 141
    A 36 36 0 0 0 118 69
    L 118 59
    A 46 46 0 0 1 118 151" fill="none" stroke="#C9922A" stroke-width="3" stroke-linecap="round" stroke-linejoin="round"/>

  <!-- Arbor (centre pivot) -->
  <circle cx="118" cy="105" r="7" fill="#1B2B3E"/>
  <circle cx="118" cy="105" r="3.5" fill="#C9922A"/>

</svg>
